<mxfile host="app.diagrams.net" modified="2021-12-17T14:34:15.105Z" agent="5.0 (Windows NT 10.0; Win64; x64) AppleWebKit/537.36 (KHTML, like Gecko) Chrome/96.0.4664.110 Safari/537.36 Edg/96.0.1054.57" etag="i3kDVmm5r9zCkHf87YLy" version="15.9.6" type="github">
  <diagram id="IyOsTcuJFlL0Fs99R7NA" name="Page-1">
    <mxGraphModel dx="1822" dy="794" grid="1" gridSize="10" guides="1" tooltips="1" connect="1" arrows="1" fold="1" page="0" pageScale="1" pageWidth="850" pageHeight="1100" math="0" shadow="0">
      <root>
        <mxCell id="0" />
        <mxCell id="1" parent="0" />
        <mxCell id="R-i-z1R9yfyZmq9C8HPq-3" value="" style="edgeStyle=orthogonalEdgeStyle;rounded=0;orthogonalLoop=1;jettySize=auto;html=1;" edge="1" parent="1" source="R-i-z1R9yfyZmq9C8HPq-1" target="R-i-z1R9yfyZmq9C8HPq-2">
          <mxGeometry relative="1" as="geometry" />
        </mxCell>
        <mxCell id="R-i-z1R9yfyZmq9C8HPq-1" value="Start" style="ellipse;whiteSpace=wrap;html=1;fillColor=#ffe6cc;strokeColor=#d79b00;" vertex="1" parent="1">
          <mxGeometry x="370" y="40" width="80" height="80" as="geometry" />
        </mxCell>
        <mxCell id="R-i-z1R9yfyZmq9C8HPq-5" value="" style="edgeStyle=orthogonalEdgeStyle;rounded=0;orthogonalLoop=1;jettySize=auto;html=1;" edge="1" parent="1" source="R-i-z1R9yfyZmq9C8HPq-2" target="R-i-z1R9yfyZmq9C8HPq-4">
          <mxGeometry relative="1" as="geometry" />
        </mxCell>
        <mxCell id="R-i-z1R9yfyZmq9C8HPq-2" value="Click to start" style="shape=hexagon;perimeter=hexagonPerimeter2;whiteSpace=wrap;html=1;fixedSize=1;fillColor=#d5e8d4;strokeColor=#82b366;" vertex="1" parent="1">
          <mxGeometry x="350" y="150" width="120" height="80" as="geometry" />
        </mxCell>
        <mxCell id="R-i-z1R9yfyZmq9C8HPq-10" style="edgeStyle=orthogonalEdgeStyle;rounded=0;orthogonalLoop=1;jettySize=auto;html=1;exitX=0;exitY=0;exitDx=0;exitDy=0;entryX=1;entryY=0.5;entryDx=0;entryDy=0;" edge="1" parent="1" source="R-i-z1R9yfyZmq9C8HPq-4" target="R-i-z1R9yfyZmq9C8HPq-6">
          <mxGeometry relative="1" as="geometry" />
        </mxCell>
        <mxCell id="R-i-z1R9yfyZmq9C8HPq-19" style="edgeStyle=orthogonalEdgeStyle;rounded=0;orthogonalLoop=1;jettySize=auto;html=1;exitX=0;exitY=0;exitDx=0;exitDy=0;entryX=1;entryY=0.5;entryDx=0;entryDy=0;" edge="1" parent="1" source="R-i-z1R9yfyZmq9C8HPq-4" target="R-i-z1R9yfyZmq9C8HPq-18">
          <mxGeometry relative="1" as="geometry" />
        </mxCell>
        <mxCell id="R-i-z1R9yfyZmq9C8HPq-29" style="edgeStyle=orthogonalEdgeStyle;rounded=0;orthogonalLoop=1;jettySize=auto;html=1;exitX=1;exitY=0;exitDx=0;exitDy=0;entryX=0;entryY=0.5;entryDx=0;entryDy=0;" edge="1" parent="1" source="R-i-z1R9yfyZmq9C8HPq-4" target="R-i-z1R9yfyZmq9C8HPq-28">
          <mxGeometry relative="1" as="geometry">
            <Array as="points">
              <mxPoint x="490" y="450" />
              <mxPoint x="490" y="255" />
            </Array>
          </mxGeometry>
        </mxCell>
        <mxCell id="R-i-z1R9yfyZmq9C8HPq-37" style="edgeStyle=orthogonalEdgeStyle;rounded=0;orthogonalLoop=1;jettySize=auto;html=1;exitX=1;exitY=0;exitDx=0;exitDy=0;entryX=0;entryY=0.5;entryDx=0;entryDy=0;" edge="1" parent="1" source="R-i-z1R9yfyZmq9C8HPq-4" target="R-i-z1R9yfyZmq9C8HPq-35">
          <mxGeometry relative="1" as="geometry">
            <Array as="points">
              <mxPoint x="490" y="450" />
              <mxPoint x="490" y="385" />
            </Array>
          </mxGeometry>
        </mxCell>
        <mxCell id="R-i-z1R9yfyZmq9C8HPq-4" value="Start Game" style="rounded=0;whiteSpace=wrap;html=1;fillColor=#f8cecc;strokeColor=#b85450;" vertex="1" parent="1">
          <mxGeometry x="350" y="450" width="120" height="60" as="geometry" />
        </mxCell>
        <mxCell id="R-i-z1R9yfyZmq9C8HPq-9" value="no" style="edgeStyle=orthogonalEdgeStyle;rounded=0;orthogonalLoop=1;jettySize=auto;html=1;" edge="1" parent="1" source="R-i-z1R9yfyZmq9C8HPq-6" target="R-i-z1R9yfyZmq9C8HPq-8">
          <mxGeometry relative="1" as="geometry" />
        </mxCell>
        <mxCell id="R-i-z1R9yfyZmq9C8HPq-12" value="" style="edgeStyle=orthogonalEdgeStyle;rounded=0;orthogonalLoop=1;jettySize=auto;html=1;" edge="1" parent="1" source="R-i-z1R9yfyZmq9C8HPq-6" target="R-i-z1R9yfyZmq9C8HPq-11">
          <mxGeometry relative="1" as="geometry" />
        </mxCell>
        <mxCell id="R-i-z1R9yfyZmq9C8HPq-6" value="has a sun been collected?" style="rhombus;whiteSpace=wrap;html=1;fillColor=#dae8fc;strokeColor=#6c8ebf;" vertex="1" parent="1">
          <mxGeometry x="150" y="200" width="90" height="90" as="geometry" />
        </mxCell>
        <mxCell id="R-i-z1R9yfyZmq9C8HPq-8" value="A" style="ellipse;whiteSpace=wrap;html=1;" vertex="1" parent="1">
          <mxGeometry x="20" y="220" width="50" height="50" as="geometry" />
        </mxCell>
        <mxCell id="R-i-z1R9yfyZmq9C8HPq-13" style="edgeStyle=orthogonalEdgeStyle;rounded=0;orthogonalLoop=1;jettySize=auto;html=1;exitX=0;exitY=0.5;exitDx=0;exitDy=0;entryX=0.5;entryY=0;entryDx=0;entryDy=0;" edge="1" parent="1" source="R-i-z1R9yfyZmq9C8HPq-11" target="R-i-z1R9yfyZmq9C8HPq-8">
          <mxGeometry relative="1" as="geometry" />
        </mxCell>
        <mxCell id="R-i-z1R9yfyZmq9C8HPq-11" value="Add 25 sun" style="rounded=0;whiteSpace=wrap;html=1;fillColor=#f8cecc;strokeColor=#b85450;" vertex="1" parent="1">
          <mxGeometry x="135" y="90" width="120" height="60" as="geometry" />
        </mxCell>
        <mxCell id="R-i-z1R9yfyZmq9C8HPq-17" value="" style="edgeStyle=orthogonalEdgeStyle;rounded=0;orthogonalLoop=1;jettySize=auto;html=1;" edge="1" parent="1" source="R-i-z1R9yfyZmq9C8HPq-14" target="R-i-z1R9yfyZmq9C8HPq-4">
          <mxGeometry relative="1" as="geometry" />
        </mxCell>
        <mxCell id="R-i-z1R9yfyZmq9C8HPq-14" value="A" style="ellipse;whiteSpace=wrap;html=1;" vertex="1" parent="1">
          <mxGeometry x="420" y="320" width="50" height="50" as="geometry" />
        </mxCell>
        <mxCell id="R-i-z1R9yfyZmq9C8HPq-20" value="no" style="edgeStyle=orthogonalEdgeStyle;rounded=0;orthogonalLoop=1;jettySize=auto;html=1;exitX=0.5;exitY=0;exitDx=0;exitDy=0;entryX=0.5;entryY=1;entryDx=0;entryDy=0;" edge="1" parent="1" source="R-i-z1R9yfyZmq9C8HPq-18" target="R-i-z1R9yfyZmq9C8HPq-8">
          <mxGeometry relative="1" as="geometry" />
        </mxCell>
        <mxCell id="R-i-z1R9yfyZmq9C8HPq-22" value="yes" style="edgeStyle=orthogonalEdgeStyle;rounded=0;orthogonalLoop=1;jettySize=auto;html=1;" edge="1" parent="1" source="R-i-z1R9yfyZmq9C8HPq-18" target="R-i-z1R9yfyZmq9C8HPq-21">
          <mxGeometry relative="1" as="geometry" />
        </mxCell>
        <mxCell id="R-i-z1R9yfyZmq9C8HPq-18" value="has a plant been selected?" style="rhombus;whiteSpace=wrap;html=1;fillColor=#dae8fc;strokeColor=#6c8ebf;" vertex="1" parent="1">
          <mxGeometry x="150" y="330" width="90" height="90" as="geometry" />
        </mxCell>
        <mxCell id="R-i-z1R9yfyZmq9C8HPq-23" value="no" style="edgeStyle=orthogonalEdgeStyle;rounded=0;orthogonalLoop=1;jettySize=auto;html=1;" edge="1" parent="1" source="R-i-z1R9yfyZmq9C8HPq-21" target="R-i-z1R9yfyZmq9C8HPq-8">
          <mxGeometry relative="1" as="geometry" />
        </mxCell>
        <mxCell id="R-i-z1R9yfyZmq9C8HPq-26" value="yes" style="edgeStyle=orthogonalEdgeStyle;rounded=0;orthogonalLoop=1;jettySize=auto;html=1;" edge="1" parent="1" source="R-i-z1R9yfyZmq9C8HPq-21" target="R-i-z1R9yfyZmq9C8HPq-25">
          <mxGeometry relative="1" as="geometry" />
        </mxCell>
        <mxCell id="R-i-z1R9yfyZmq9C8HPq-21" value="has a slot been selected?" style="rhombus;whiteSpace=wrap;html=1;fillColor=#dae8fc;strokeColor=#6c8ebf;" vertex="1" parent="1">
          <mxGeometry y="330" width="90" height="90" as="geometry" />
        </mxCell>
        <mxCell id="R-i-z1R9yfyZmq9C8HPq-27" style="edgeStyle=orthogonalEdgeStyle;rounded=0;orthogonalLoop=1;jettySize=auto;html=1;exitX=0.5;exitY=0;exitDx=0;exitDy=0;entryX=0;entryY=0.5;entryDx=0;entryDy=0;" edge="1" parent="1" source="R-i-z1R9yfyZmq9C8HPq-25" target="R-i-z1R9yfyZmq9C8HPq-8">
          <mxGeometry relative="1" as="geometry" />
        </mxCell>
        <mxCell id="R-i-z1R9yfyZmq9C8HPq-25" value="Place plant" style="rounded=0;whiteSpace=wrap;html=1;fillColor=#f8cecc;strokeColor=#b85450;" vertex="1" parent="1">
          <mxGeometry x="-170" y="345" width="120" height="60" as="geometry" />
        </mxCell>
        <mxCell id="R-i-z1R9yfyZmq9C8HPq-31" value="no" style="edgeStyle=orthogonalEdgeStyle;rounded=0;orthogonalLoop=1;jettySize=auto;html=1;" edge="1" parent="1" source="R-i-z1R9yfyZmq9C8HPq-28" target="R-i-z1R9yfyZmq9C8HPq-30">
          <mxGeometry relative="1" as="geometry" />
        </mxCell>
        <mxCell id="R-i-z1R9yfyZmq9C8HPq-33" value="yes" style="edgeStyle=orthogonalEdgeStyle;rounded=0;orthogonalLoop=1;jettySize=auto;html=1;exitX=0.5;exitY=0;exitDx=0;exitDy=0;" edge="1" parent="1" source="R-i-z1R9yfyZmq9C8HPq-28" target="R-i-z1R9yfyZmq9C8HPq-32">
          <mxGeometry relative="1" as="geometry" />
        </mxCell>
        <mxCell id="R-i-z1R9yfyZmq9C8HPq-28" value="has a zombie reached the house?" style="rhombus;whiteSpace=wrap;html=1;fillColor=#dae8fc;strokeColor=#6c8ebf;" vertex="1" parent="1">
          <mxGeometry x="520" y="210" width="90" height="90" as="geometry" />
        </mxCell>
        <mxCell id="R-i-z1R9yfyZmq9C8HPq-30" value="A" style="ellipse;whiteSpace=wrap;html=1;" vertex="1" parent="1">
          <mxGeometry x="690" y="230" width="50" height="50" as="geometry" />
        </mxCell>
        <mxCell id="R-i-z1R9yfyZmq9C8HPq-34" style="edgeStyle=orthogonalEdgeStyle;rounded=0;orthogonalLoop=1;jettySize=auto;html=1;exitX=1;exitY=0.5;exitDx=0;exitDy=0;entryX=0.5;entryY=0;entryDx=0;entryDy=0;" edge="1" parent="1" source="R-i-z1R9yfyZmq9C8HPq-32" target="R-i-z1R9yfyZmq9C8HPq-30">
          <mxGeometry relative="1" as="geometry" />
        </mxCell>
        <mxCell id="R-i-z1R9yfyZmq9C8HPq-32" value="End Game, Pull up game over screen" style="rounded=0;whiteSpace=wrap;html=1;fillColor=#f8cecc;strokeColor=#b85450;" vertex="1" parent="1">
          <mxGeometry x="505" y="90" width="120" height="60" as="geometry" />
        </mxCell>
        <mxCell id="R-i-z1R9yfyZmq9C8HPq-38" value="no" style="edgeStyle=orthogonalEdgeStyle;rounded=0;orthogonalLoop=1;jettySize=auto;html=1;exitX=0.5;exitY=0;exitDx=0;exitDy=0;entryX=0.5;entryY=1;entryDx=0;entryDy=0;" edge="1" parent="1" source="R-i-z1R9yfyZmq9C8HPq-35" target="R-i-z1R9yfyZmq9C8HPq-30">
          <mxGeometry relative="1" as="geometry" />
        </mxCell>
        <mxCell id="R-i-z1R9yfyZmq9C8HPq-40" value="" style="edgeStyle=orthogonalEdgeStyle;rounded=0;orthogonalLoop=1;jettySize=auto;html=1;" edge="1" parent="1" source="R-i-z1R9yfyZmq9C8HPq-35" target="R-i-z1R9yfyZmq9C8HPq-39">
          <mxGeometry relative="1" as="geometry" />
        </mxCell>
        <mxCell id="R-i-z1R9yfyZmq9C8HPq-35" value="is there a zombie on screen?" style="rhombus;whiteSpace=wrap;html=1;fillColor=#dae8fc;strokeColor=#6c8ebf;" vertex="1" parent="1">
          <mxGeometry x="520" y="340" width="90" height="90" as="geometry" />
        </mxCell>
        <mxCell id="R-i-z1R9yfyZmq9C8HPq-41" value="no" style="edgeStyle=orthogonalEdgeStyle;rounded=0;orthogonalLoop=1;jettySize=auto;html=1;" edge="1" parent="1" source="R-i-z1R9yfyZmq9C8HPq-39" target="R-i-z1R9yfyZmq9C8HPq-30">
          <mxGeometry relative="1" as="geometry" />
        </mxCell>
        <mxCell id="R-i-z1R9yfyZmq9C8HPq-43" value="yes" style="edgeStyle=orthogonalEdgeStyle;rounded=0;orthogonalLoop=1;jettySize=auto;html=1;" edge="1" parent="1" source="R-i-z1R9yfyZmq9C8HPq-39" target="R-i-z1R9yfyZmq9C8HPq-42">
          <mxGeometry relative="1" as="geometry" />
        </mxCell>
        <mxCell id="R-i-z1R9yfyZmq9C8HPq-39" value="is there a plant in that same lane?" style="rhombus;whiteSpace=wrap;html=1;fillColor=#dae8fc;strokeColor=#6c8ebf;" vertex="1" parent="1">
          <mxGeometry x="670" y="340" width="90" height="90" as="geometry" />
        </mxCell>
        <mxCell id="R-i-z1R9yfyZmq9C8HPq-44" style="edgeStyle=orthogonalEdgeStyle;rounded=0;orthogonalLoop=1;jettySize=auto;html=1;exitX=0.5;exitY=0;exitDx=0;exitDy=0;entryX=1;entryY=0.5;entryDx=0;entryDy=0;" edge="1" parent="1" source="R-i-z1R9yfyZmq9C8HPq-42" target="R-i-z1R9yfyZmq9C8HPq-30">
          <mxGeometry relative="1" as="geometry" />
        </mxCell>
        <mxCell id="R-i-z1R9yfyZmq9C8HPq-42" value="have the plant shoot the zombie" style="rounded=0;whiteSpace=wrap;html=1;fillColor=#f8cecc;strokeColor=#b85450;" vertex="1" parent="1">
          <mxGeometry x="830" y="355" width="120" height="60" as="geometry" />
        </mxCell>
      </root>
    </mxGraphModel>
  </diagram>
</mxfile>
